<svg fill="#F2B235" height="511pt" viewBox="-104 0 511 511.84" width="511pt" xmlns="http://www.w3.org/2000/svg"><path d="m232.226562 200.015625c-4.421874 0-8-3.574219-8-8 0-4.414063-3.582031-8-8-8-4.414062 0-8 3.585937-8 8 0 4.425781-3.574218 8-8 8-4.421874 0-8-3.574219-8-8 0-13.230469 10.769532-24 24-24 13.234376 0 24 10.769531 24 24 0 4.417969-3.574218 8-8 8zm0 0"/><path d="m232.226562 320.015625c-4.421874 0-8-3.574219-8-8v-120c0-4.421875 3.578126-8 8-8 4.425782 0 8 3.578125 8 8v120c0 4.417969-3.574218 8-8 8zm0 0"/><path d="m200.226562 248.015625c-4.421874 0-8-3.574219-8-8v-80c0-4.421875 3.578126-8 8-8 4.425782 0 8 3.578125 8 8v80c0 4.417969-3.574218 8-8 8zm0 0"/><path d="m200.226562 168.015625c-4.421874 0-8-3.574219-8-8 0-4.414063-3.582031-8-8-8-4.414062 0-8 3.585937-8 8 0 4.425781-3.574218 8-8 8-4.421874 0-8-3.574219-8-8 0-13.230469 10.769532-24 24-24 13.234376 0 24 10.769531 24 24 0 4.417969-3.574218 8-8 8zm0 0"/><path d="m104.226562 272.015625c-4.421874 0-8-3.574219-8-8v-104c0-4.421875 3.578126-8 8-8 4.425782 0 8 3.578125 8 8v104c0 4.417969-3.574218 8-8 8zm0 0"/><path d="m136.226562 168.015625c-4.421874 0-8-3.574219-8-8 0-4.414063-3.582031-8-8-8-4.414062 0-8 3.585937-8 8 0 4.425781-3.574218 8-8 8-4.421874 0-8-3.574219-8-8 0-13.230469 10.769532-24 24-24 13.234376 0 24 10.769531 24 24 0 4.417969-3.574218 8-8 8zm0 0"/><path d="m168.226562 248.015625c-4.421874 0-8-3.574219-8-8v-104c0-4.421875 3.578126-8 8-8 4.425782 0 8 3.578125 8 8v104c0 4.417969-3.574218 8-8 8zm0 0"/><path d="m168.226562 144.015625c-4.421874 0-8-3.574219-8-8 0-4.414063-3.582031-8-8-8-4.414062 0-8 3.585937-8 8 0 4.425781-3.574218 8-8 8-4.421874 0-8-3.574219-8-8 0-13.230469 10.769532-24 24-24 13.234376 0 24 10.769531 24 24 0 4.417969-3.574218 8-8 8zm0 0"/><path d="m136.226562 248.015625c-4.421874 0-8-3.574219-8-8v-104c0-4.421875 3.578126-8 8-8 4.425782 0 8 3.578125 8 8v104c0 4.417969-3.574218 8-8 8zm0 0"/><path d="m200.234375 375.449219c-2.757813 0-5.445313-1.433594-6.925781-3.992188-2.214844-3.824219-.914063-8.722656 2.910156-10.929687 17.273438-10.007813 28.007812-28.597656 28.007812-48.511719 0-4.421875 3.578126-8 8-8 4.425782 0 8 3.578125 8 8 0 25.609375-13.789062 49.503906-35.992187 62.359375-1.253906.730469-2.636719 1.074219-4 1.074219zm0 0"/><path d="m136.164062 374.425781c-1.480468 0-2.96875-.410156-4.296874-1.257812-10.078126-6.441407-19.152344-15.527344-26.976563-27.023438-2.496094-3.648437-1.542969-8.625 2.113281-11.113281 3.640625-2.511719 8.625-1.542969 11.113282 2.113281 6.597656 9.6875 14.136718 17.269531 22.367187 22.535157 3.726563 2.382812 4.816406 7.328124 2.441406 11.046874-1.539062 2.386719-4.121093 3.699219-6.761719 3.699219zm0 0"/><path d="m60.429688 274.425781c-2.5625 0-5.074219-1.226562-6.625-3.503906-7.832032-11.507813-7.457032-24.378906.960937-32.785156 9.191406-9.199219 24.007813-9.28125 33.742187-.183594 3.222657 3.015625 3.398438 8.078125.382813 11.304687-3.015625 3.230469-8.101563 3.398438-11.300781.382813-3.402344-3.167969-8.441406-3.242187-11.503906-.183594-4.265626 4.261719.046874 11.136719.957031 12.472657 2.488281 3.65625 1.535156 8.621093-2.117188 11.117187-1.378906.929687-2.953125 1.378906-4.496093 1.378906zm0 0"/><path d="m111.507812 349.640625c-2.558593 0-5.078124-1.226563-6.625-3.503906l-51.078124-75.214844c-2.488282-3.65625-1.527344-8.625 2.128906-11.113281 3.644531-2.496094 8.621094-1.527344 11.109375 2.128906l51.082031 75.214844c2.488281 3.65625 1.527344 8.625-2.128906 11.113281-1.382813.925781-2.945313 1.375-4.488282 1.375zm0 0"/><path d="m104.226562 272.015625c-1.984374 0-3.972656-.734375-5.519531-2.207031l-21.183593-20.214844c-3.191407-3.058594-3.3125-8.121094-.261719-11.3125 3.054687-3.191406 8.125-3.304688 11.308593-.265625l21.1875 20.214844c3.191407 3.058593 3.308594 8.121093.261719 11.3125-1.566406 1.640625-3.679687 2.472656-5.792969 2.472656zm0 0"/><path d="m208.125 399.9375h-80c-4.425781 0-8-3.578125-8-8 0-4.425781 3.574219-8 8-8h80c4.421875 0 8 3.574219 8 8 0 4.421875-3.578125 8-8 8zm0 0"/><path d="m208.125 423.921875c-4.425781 0-8-3.578125-8-8v-23.984375c0-4.425781 3.574219-8 8-8 4.421875 0 8 3.574219 8 8v23.984375c0 4.421875-3.578125 8-8 8zm0 0"/><path d="m128.125 423.921875c-4.425781 0-8-3.578125-8-8v-23.984375c0-4.425781 3.574219-8 8-8 4.421875 0 8 3.574219 8 8v23.984375c0 4.421875-3.578125 8-8 8zm0 0"/><path d="m216.117188 511.839844c-4.425782 0-8-3.574219-8-8v-79.917969h-79.984376v79.917969c0 4.425781-3.578124 8-8 8-4.425781 0-8-3.574219-8-8v-87.917969c0-4.425781 3.574219-8 8-8h95.984376c4.421874 0 8 3.574219 8 8v87.917969c0 4.425781-3.578126 8-8 8zm0 0"/><path d="m216.125 447.902344h-8c-4.425781 0-8-3.574219-8-8 0-4.421875 3.574219-8 8-8h8c4.421875 0 8 3.578125 8 8 0 4.425781-3.578125 8-8 8zm0 0"/><path d="m200.226562 399.953125c-4.421874 0-8-3.578125-8-8v-24.503906c0-4.425781 3.578126-8 8-8 4.425782 0 8 3.574219 8 8v24.503906c0 4.421875-3.574218 8-8 8zm0 0"/><path d="m136.171875 399.953125c-4.425781 0-8-3.578125-8-8v-25.527344c0-4.425781 3.574219-8 8-8s8 3.574219 8 8v25.527344c0 4.421875-3.582031 8-8 8zm0 0"/><path d="m113.195312 352h-72.816406c-4.421875 0-8-3.574219-8-8s3.578125-8 8-8h72.816406c4.425782 0 8 3.574219 8 8s-3.582031 8-8 8zm0 0"/><path d="m296.363281 352.046875h-73.351562c-4.421875 0-8-3.574219-8-8 0-4.421875 3.578125-8 8-8h73.351562c4.425781 0 8 3.578125 8 8 0 4.425781-3.574219 8-8 8zm0 0"/><path d="m40.421875 352.015625c-22.058594 0-40-17.945313-40-40 0-4.421875 3.574219-8 8-8 4.421875 0 8 3.578125 8 8 0 13.230469 10.765625 24 24 24 4.421875 0 8 3.578125 8 8 0 4.425781-3.578125 8-8 8zm0 0"/><path d="m40.421875 80c-22.058594 0-40-17.945312-40-40s17.941406-40 40-40c4.421875 0 8 3.574219 8 8s-3.578125 8-8 8c-13.234375 0-24 10.769531-24 24s10.765625 24 24 24c4.421875 0 8 3.574219 8 8s-3.578125 8-8 8zm0 0"/><path d="m8.421875 320.015625c-4.425781 0-8-3.574219-8-8v-272.015625c0-4.425781 3.574219-8 8-8 4.421875 0 8 3.574219 8 8v272.015625c0 4.417969-3.578125 8-8 8zm0 0"/><path d="m296.371094 80h-255.949219c-4.425781 0-8-3.574219-8-8s3.574219-8 8-8h255.949219c4.425781 0 8 3.574219 8 8s-3.574219 8-8 8zm0 0"/><path d="m296.363281 352.046875c-4.421875 0-8-3.574219-8-8v-272.046875c0-4.425781 3.578125-8 8-8 4.425781 0 8 3.574219 8 8v272.046875c0 4.417969-3.574219 8-8 8zm0 0"/><path d="m296.371094 77.871094c-4.421875 0-8-3.574219-8-8v-61.871094c0-4.425781 3.578125-8 8-8 4.425781 0 8 3.574219 8 8v61.871094c0 4.425781-3.574219 8-8 8zm0 0"/><path d="m272.347656 77.871094c-4.421875 0-8-3.574219-8-8v-61.871094c0-4.425781 3.578125-8 8-8 4.425782 0 8 3.574219 8 8v61.871094c0 4.425781-3.574218 8-8 8zm0 0"/><path d="m72.339844 400.3125c-4.425782 0-8-3.578125-8-8v-47.984375c0-4.425781 3.574218-8 8-8 4.425781 0 8 3.574219 8 8v47.984375c0 4.421875-3.574219 8-8 8zm0 0"/><path d="m40.339844 400.3125c-4.425782 0-8-3.578125-8-8v-47.984375c0-4.425781 3.574218-8 8-8 4.425781 0 8 3.574219 8 8v47.984375c0 4.421875-3.574219 8-8 8zm0 0"/><path d="m72.332031 400.3125c-1.199219 0-2.425781-.273438-3.566406-.839844l-16-8c-3.953125-1.976562-5.554687-6.785156-3.578125-10.738281 1.984375-3.949219 6.777344-5.542969 10.738281-3.574219l16 8c3.949219 1.976563 5.550781 6.785156 3.574219 10.734375-1.40625 2.800781-4.230469 4.417969-7.167969 4.417969zm0 0"/><path d="m40.347656 400.3125c-2.9375 0-5.757812-1.617188-7.167968-4.425781-1.976563-3.949219-.375-8.757813 3.578124-10.734375l16-8c3.949219-1.96875 8.75-.375 10.734376 3.574218 1.976562 3.953126.375 8.761719-3.578126 10.738282l-16 8c-1.140624.574218-2.359374.847656-3.566406.847656zm0 0"/><path d="m296.371094 16h-256.054688c-4.425781 0-8-3.574219-8-8s3.574219-8 8-8h256.054688c4.425781 0 8 3.574219 8 8s-3.574219 8-8 8zm0 0"/><path d="m272.347656 47.96875h-232.03125c-4.425781 0-8-3.578125-8-8 0-4.425781 3.574219-8 8-8h232.03125c4.425782 0 8 3.574219 8 8 0 4.421875-3.574218 8-8 8zm0 0"/></svg>