<svg fill="#F2B235" viewBox="0 0 512 512" xmlns="http://www.w3.org/2000/svg"><path d="m90 30c0-16.539062-13.460938-30-30-30s-30 13.460938-30 30 13.460938 30 30 30 30-13.460938 30-30zm0 0"/><path d="m8.75 181h21.25v60c0 16.539062 13.460938 30 30 30s30-13.460938 30-30v-60h21.25c4.832031 0 8.75-3.917969 8.75-8.75v-52.25c0-33.089844-26.910156-60-60-60s-60 26.910156-60 60v52.25c0 4.832031 3.917969 8.75 8.75 8.75zm0 0"/><path d="m482 30c0-16.539062-13.460938-30-30-30s-30 13.460938-30 30 13.460938 30 30 30 30-13.460938 30-30zm0 0"/><path d="m452 60c-33.089844 0-60 26.910156-60 60v52.25c0 4.832031 3.917969 8.75 8.75 8.75h21.25v60c0 16.539062 13.460938 30 30 30s30-13.460938 30-30v-60h21.25c4.832031 0 8.75-3.917969 8.75-8.75v-52.25c0-33.089844-26.910156-60-60-60zm0 0"/><path d="m305.101562 283.554688c-3.488281-24.257813-24.59375-42.554688-49.101562-42.554688s-45.613281 18.296875-49.101562 42.566406l-19.621094 138.433594h137.445312zm0 0"/><path d="m377 452h-242c-24.847656 0-44.996094 20.136719-45 45 0 8.289062 6.710938 15 15 15h302c8.289062 0 15-6.710938 15-15-.003906-24.863281-20.148438-45-45-45zm0 0"/><path d="m174.113281 301h-144.113281c-16.570312 0-30 13.429688-30 30 0 16.566406 13.429688 30 30 30h135.546875zm0 0"/><path d="m482 301h-144.109375l8.566406 60h135.542969c16.570312 0 30-13.433594 30-30 0-16.570312-13.429688-30-30-30zm0 0"/></svg>