<?xml version="1.0" encoding="utf-8"?>
<!-- Generator: Adobe Illustrator 24.1.3, SVG Export Plug-In . SVG Version: 6.00 Build 0)  -->
<svg version="1.1" id="Layer_1" xmlns="http://www.w3.org/2000/svg" xmlns:xlink="http://www.w3.org/1999/xlink" x="0px" y="0px"
	 viewBox="0 0 24 24" style="enable-background:new 0 0 24 24;" xml:space="preserve">
<style type="text/css">
	.st0{fill:none;}
	.st1{opacity:0.4;fill:#FFFFFF;}
</style>
<path class="st0" d="M0,0h24v24H0V0z"/>
<path class="st1" d="M7.2,17c0.5,0,1-0.3,1.2-0.7l1.4-2.8c0.1-0.3,0.2-0.6,0.2-0.9V8c0-0.6-0.4-1-1-1H5C4.4,7,4,7.4,4,8v4
	c0,0.6,0.4,1,1,1h2l-1,2.1C5.5,15.9,6.2,17,7.2,17z M17.2,17c0.5,0,1-0.3,1.2-0.7l1.4-2.8c0.1-0.3,0.2-0.6,0.2-0.9V8
	c0-0.6-0.5-1-1-1h-4c-0.6,0-1,0.4-1,1v4c0,0.6,0.4,1,1,1h2l-1,2.1C15.5,15.9,16.2,17,17.2,17z"/>
</svg>
