<svg viewBox="0 -5 511.99987 511" xmlns="http://www.w3.org/2000/svg"><path fill="#F2B235" d="m472.289062 345.820312c24.046876-36.121093 36.957032-78.519531 36.957032-122.90625 0-123.789062-100.585938-222.414062-222.414063-222.414062-165.765625 0-271.449219 174.191406-199.84375 320.140625-3.546875 5.085937-6.195312 10.828125-7.804687 17.109375h-64.015625c-8.371094 0-15.167969 6.792969-15.167969 15.167969v133.664062c0 8.382813 6.796875 15.167969 15.167969 15.167969 21.902343 0 287.304687.015625 297.863281.019531 30.011719 0 59.578125-7.988281 85.515625-23.09375l92.335937-53.796875c36.253907-21.125 23.074219-76.179687-18.59375-79.058594zm-2.40625-181.230468c.011719.039062.03125.089844.039063.128906h-25.832031c-16.777344 0-30.425782-13.660156-30.425782-30.433594v-55.582031c24.035157 20.601563 45.738282 52.757813 56.21875 85.886719zm-183.050781-133.753906c34.097657 0 67.292969 8.957031 96.496094 25.953124v77.496094c0 33.5 27.261719 60.769532 60.761719 60.769532h32.808594c9.394531 64.75-14.410157 128.226562-61.972657 170.875-28.832031 11.714843-45.835937 23.777343-77.433593 27.269531 4.488281-13.910157 2.671874-27.355469-4.207032-38.675781l20.972656-25.753907c21.28125-21.070312 21.472657-55.484375.171876-76.785156-3.621094-2.644531-19.5-25.695313-52.4375-25.695313h-18.453126l41.132813-41.132812c18.453125-18.453125 18.40625-48.289062 0-66.675781l-82.449219-82.449219c14.519532-3.457031 29.445313-5.195312 44.609375-5.195312zm-76.753906 15.945312 93.144531 93.15625c6.585938 6.582031 6.558594 17.207031 0 23.761719l-49.058594 49.0625c-16.144531 16.164062-4.707031 43.863281 18.160157 43.863281h29.667969c9.007812 0 17.824218 3.648438 24.195312 10.019531 3.433594 4.328125 13.921875 10.152344 13.773438 23.933594-.136719 10.613281-6.515626 15.707031-8.675782 18.355469l-21.386718 26.269531c-12.828126-4.746094-19.007813-2.074219-66.503907-2.851563-6.550781 0-12.628906-3.5625-16.238281-9.527343-1.40625-2.335938-2.992188-4.527344-4.742188-6.582031v-47.046876c0-21.945312-8.546874-42.570312-24.046874-58.074218l-80.183594-80.183594c6.269531-11.289062 32.316406-57.953125 91.894531-84.15625zm-33.167969 185.789062c9.777344 9.777344 15.167969 22.78125 15.167969 36.625v28.703126c-16.320313-4.402344-29.542969-2.511719-47.828125-2.960938-12.355469 0-23.46875 2.214844-32.910156 6.308594-20.320313-45.625-21.460938-96.414063-6.300782-140.550782zm-146.574218 135.511719h46.976562v103.332031h-46.976562zm445.28125 30.589844-92.339844 53.792969c-21.304688 12.40625-45.59375 18.96875-70.246094 18.96875h-205.382812v-116.726563c.234374-.417969-3.828126-29.460937 36.601562-29.460937 15.484375.914062 46.304688-4.3125 56.960938 13.28125 5.226562 8.644531 12.617187 15.289062 21.203124 19.394531 13.195313 6.347656 19.324219 4.761719 71.519532 4.761719 8.644531 0 15.679687 7.039062 15.679687 15.683594 0 8.558593-6.964843 15.683593-15.679687 15.683593-19.222656 0-68.574219 0-86.382813 0-8.421875 0-15.167969 6.847657-15.167969 15.164063 0 8.382812 6.792969 15.167968 15.167969 15.167968h114.449219c23.90625 0 47.101562-4.914062 68.953125-14.621093 2.328125-1.035157-13.492187 5.992187 73.609375-32.691407 5.785156-2.566406 12.652344-.210937 15.644531 5.359376 3.105469 5.796874 1.089844 12.925781-4.589843 16.242187zm0 0"/></svg>